<svg xmlns="http://www.w3.org/2000/svg" style="display: none;"><symbol id="transparency" viewBox="0 0 512 512.00049"><title>transparency</title><path d="m90.742188 180.734375c-5.519532 0-10 4.476563-10 9.996094s4.480468 10 10 10c5.519531 0 10-4.480469 10-10s-4.480469-9.996094-10-9.996094zm0 0"/><path d="m370.921875 300.21875c-1.871094-1.875-4.417969-2.929688-7.070313-2.929688-.101562.019532-3.945312-.195312-7.070312 2.929688l-7.066406 7.066406-22.976563-22.972656c50.703125-71.074219 42.992188-169.117188-19.449219-231.554688-70.335937-70.335937-184.1875-70.347656-254.53125 0-70.335937 70.332032-70.347656 184.1875 0 254.53125 62.285157 62.289063 160.289063 70.28125 231.550782 19.449219l22.976562 22.976563-7.066406 7.066406c-3.902344 3.902344-3.90625 10.238281 0 14.144531l126.421875 126.410157c19.535156 19.546874 51.15625 19.558593 70.695313.003906 19.546874-19.53125 19.554687-51.15625 0-70.695313zm-49.496094 35.355469-21.410156-21.410157c2.488281-2.230468 4.921875-4.519531 7.273437-6.875 2.355469-2.351562 4.644532-4.785156 6.875-7.269531l21.410157 21.410157zm-254.527343-42.425781c-62.523438-62.519532-62.53125-163.722657 0-226.25 62.519531-62.523438 163.722656-62.53125 226.25 0 62.382812 62.378906 62.699218 163.558593 0 226.25-63.40625 63.414062-164.582032 61.671874-226.25 0zm296.953124 28.28125 28.277344 28.28125-42.417968 42.417968-28.28125-28.277344zm119.34375 161.769531c-11.71875 11.730469-30.683593 11.734375-42.410156 0l-76.933594-76.929688 42.417969-42.417969 76.929688 76.9375c11.726562 11.714844 11.738281 30.679688-.003907 42.410157zm0 0"/><path d="m279.011719 81.042969c-54.683594-54.683594-143.273438-54.714844-197.980469-.007813-54.570312 54.582032-54.570312 143.394532 0 197.980469 54.714844 54.710937 143.253906 54.714844 197.972656 0 54.582032-54.585937 54.585938-143.394531.007813-197.972656zm-14.148438 183.828125c-46.894531 46.894531-122.785156 46.90625-169.691406.003906-46.773437-46.789062-46.773437-122.914062 0-169.703125 46.871094-46.867187 122.8125-46.878906 169.699219.011719 46.78125 46.78125 46.777344 122.902344-.007813 169.6875zm0 0"/><path d="m180.023438 80.042969c-26.726563 0-51.835938 10.398437-70.703126 29.277343-10.9375 10.9375-18.988281 23.859376-23.925781 38.414063-1.773437 5.226563 1.023438 10.90625 6.253907 12.679687 5.238281 1.777344 10.910156-1.035156 12.683593-6.253906 3.941407-11.621094 10.378907-21.949218 19.128907-30.703125 15.09375-15.097656 35.179687-23.414062 56.5625-23.414062 5.523437 0 10-4.476563 10-10 0-5.523438-4.476563-10-10-10zm0 0"/></symbol><symbol id="notification" viewBox="0 0 512 512"><title>notification</title><g> <g> <path d="M467.819,431.851l-36.651-61.056c-16.896-28.181-25.835-60.437-25.835-93.312V224 c0-82.325-67.008-149.333-149.333-149.333S106.667,141.675,106.667,224v53.483c0,32.875-8.939,65.131-25.835,93.312 l-36.651,61.056c-1.984,3.285-2.027,7.403-0.149,10.731c1.899,3.349,5.461,5.419,9.301,5.419h405.333 c3.84,0,7.403-2.069,9.301-5.419C469.845,439.253,469.803,435.136,467.819,431.851z M72.171,426.667l26.944-44.907 C118.016,350.272,128,314.219,128,277.483V224c0-70.592,57.408-128,128-128s128,57.408,128,128v53.483 c0,36.736,9.984,72.789,28.864,104.277l26.965,44.907H72.171z"/> </g> </g><g> <g> <path d="M256,0c-23.531,0-42.667,19.136-42.667,42.667v42.667C213.333,91.221,218.112,96,224,96s10.667-4.779,10.667-10.667 V42.667c0-11.776,9.557-21.333,21.333-21.333s21.333,9.557,21.333,21.333v42.667C277.333,91.221,282.112,96,288,96 s10.667-4.779,10.667-10.667V42.667C298.667,19.136,279.531,0,256,0z"/> </g> </g><g> <g> <path d="M302.165,431.936c-3.008-5.077-9.515-6.741-14.613-3.819c-5.099,2.987-6.805,9.536-3.819,14.613 c2.773,4.715,4.288,10.368,4.288,15.936c0,17.643-14.357,32-32,32c-17.643,0-32-14.357-32-32c0-5.568,1.515-11.221,4.288-15.936 c2.965-5.099,1.259-11.627-3.819-14.613c-5.141-2.923-11.627-1.259-14.613,3.819c-4.715,8.064-7.211,17.301-7.211,26.731 C202.667,488.085,226.581,512,256,512s53.333-23.915,53.376-53.333C309.376,449.237,306.88,440,302.165,431.936z"/> </g> </g></symbol><symbol id="speech-bubble" viewBox="0 -26 512 512"><title>speech-bubble</title><path d="m256 100c-5.519531 0-10 4.480469-10 10s4.480469 10 10 10 10-4.480469 10-10-4.480469-10-10-10zm0 0"/><path d="m90 280c5.519531 0 10-4.480469 10-10s-4.480469-10-10-10-10 4.480469-10 10 4.480469 10 10 10zm0 0"/><path d="m336 0c-90.027344 0-163.917969 62.070312-169.632812 140.253906-85.738282 4.300782-166.367188 66.125-166.367188 149.746094 0 34.945312 13.828125 68.804688 39 95.632812 4.980469 20.53125-1.066406 42.292969-16.070312 57.296876-2.859376 2.859374-3.714844 7.160156-2.167969 10.898437 1.546875 3.734375 5.191406 6.171875 9.238281 6.171875 28.519531 0 56.003906-11.183594 76.425781-30.890625 19.894531 6.78125 45.851563 10.890625 69.574219 10.890625 90.015625 0 163.898438-62.054688 169.628906-140.222656 20.9375-.929688 42.714844-4.796875 59.945313-10.667969 20.421875 19.707031 47.90625 30.890625 76.425781 30.890625 4.046875 0 7.691406-2.4375 9.238281-6.171875 1.546875-3.738281.691407-8.039063-2.167969-10.898437-15.003906-15.003907-21.050781-36.765626-16.070312-57.296876 25.171875-26.828124 39-60.6875 39-95.632812 0-86.886719-86.839844-150-176-150zm-160 420c-23.601562 0-50.496094-4.632812-68.511719-11.800781-3.859375-1.539063-8.269531-.527344-11.078125 2.539062-12.074218 13.199219-27.773437 22.402344-44.878906 26.632813 9.425781-18.058594 11.832031-39.347656 6.097656-59.519532-.453125-1.589843-1.292968-3.042968-2.445312-4.226562-22.6875-23.367188-35.183594-53.066406-35.183594-83.625 0-70.46875 71.4375-130 156-130 79.851562 0 150 55.527344 150 130 0 71.683594-67.289062 130-150 130zm280.816406-186.375c-1.152344 1.1875-1.992187 2.640625-2.445312 4.226562-5.734375 20.171876-3.328125 41.460938 6.097656 59.519532-17.105469-4.226563-32.804688-13.433594-44.878906-26.632813-2.808594-3.0625-7.21875-4.078125-11.078125-2.539062-15.613281 6.210937-37.886719 10.511719-58.914063 11.550781-2.921875-37.816406-21.785156-73.359375-54.035156-99.75h130.4375c5.523438 0 10-4.476562 10-10s-4.476562-10-10-10h-161.160156c-22.699219-11.554688-48.1875-18.292969-74.421875-19.707031 5.746093-67.164063 70.640625-120.292969 149.582031-120.292969 84.5625 0 156 59.53125 156 130 0 30.558594-12.496094 60.257812-35.183594 83.625zm0 0"/><path d="m256 260h-126c-5.523438 0-10 4.476562-10 10s4.476562 10 10 10h126c5.523438 0 10-4.476562 10-10s-4.476562-10-10-10zm0 0"/><path d="m256 320h-166c-5.523438 0-10 4.476562-10 10s4.476562 10 10 10h166c5.523438 0 10-4.476562 10-10s-4.476562-10-10-10zm0 0"/><path d="m422 100h-126c-5.523438 0-10 4.476562-10 10s4.476562 10 10 10h126c5.523438 0 10-4.476562 10-10s-4.476562-10-10-10zm0 0"/></symbol></svg>