<svg id="Layer_1" data-name="Layer 1" xmlns="http://www.w3.org/2000/svg" xmlns:xlink="http://www.w3.org/1999/xlink" viewBox="0 0 525.14 555.16"><defs><style>.cls-1{fill:url(#linear-gradient);}.cls-2{fill:url(#linear-gradient-2);}.cls-3{fill:url(#linear-gradient-3);}.cls-4{fill:url(#linear-gradient-4);}.cls-5{fill:url(#linear-gradient-5);}</style><linearGradient id="linear-gradient" x1="286.45" y1="165.68" x2="515.92" y2="165.68" gradientUnits="userSpaceOnUse"><stop offset="0" stop-color="#341093"/><stop offset="1" stop-color="#8366ff"/></linearGradient><linearGradient id="linear-gradient-2" x1="282.31" y1="331.05" x2="433.17" y2="331.05" gradientUnits="userSpaceOnUse"><stop offset="0" stop-color="#8366ff"/><stop offset="1" stop-color="#341093"/></linearGradient><linearGradient id="linear-gradient-3" x1="87.88" y1="119.65" x2="236.41" y2="119.65" gradientUnits="userSpaceOnUse"><stop offset="0" stop-color="#a33106"/><stop offset="1" stop-color="#fe4d1e"/></linearGradient><linearGradient id="linear-gradient-4" x1="6.94" y1="284.68" x2="240.55" y2="284.68" gradientUnits="userSpaceOnUse"><stop offset="0" stop-color="#fe4d1e"/><stop offset="1" stop-color="#a33106"/></linearGradient><linearGradient id="linear-gradient-5" x1="262.57" y1="162.93" x2="262.57" y2="288.26" gradientUnits="userSpaceOnUse"><stop offset="0" stop-color="#feca0d"/><stop offset="0.88" stop-color="#ff8200"/></linearGradient></defs><title>hamza logo 2</title><path class="cls-1" d="M515.92,225.19l-51-51-.09.1-52.17-52.17L305,14.48A83.12,83.12,0,0,0,286.45,67.4c0,15,2.2,30,10.43,41a88.84,88.84,0,0,0,6.77,6.77l112,112a83.49,83.49,0,0,1,17.52,51.64,84.53,84.53,0,0,1-8.93,38.11Z"/><path class="cls-2" d="M433.17,278.77a84.53,84.53,0,0,1-8.93,38.11L304.11,437c-.79-.84-1.59-1.69-2.36-2.56a78.43,78.43,0,0,1-19.44-52.07c0-11.58.72-23.52,6.83-32.4,1.59-2.32,8-8,8-8L414,225.1A83.32,83.32,0,0,1,433.17,278.77Z"/><path class="cls-3" d="M236.41,67.4c0,15-2.2,30-10.42,41a92.7,92.7,0,0,1-6.79,6.78L109.52,224.82A73.49,73.49,0,0,1,100,132.34l20-20,97.92-97.91A83.17,83.17,0,0,1,236.41,67.4Z"/><path class="cls-4" d="M233.73,350c-1.6-2.32-8-8-8-8L109.52,224.82A73.49,73.49,0,0,1,100,132.34L58,174.29l-.1-.1-51,51,91.68,91.69h0L218.75,437c.79-.84,1.6-1.69,2.36-2.56a78.43,78.43,0,0,0,19.44-52.07C240.55,370.8,239.83,358.86,233.73,350Z"/><path d="M46.75,478.34v1.6a6.19,6.19,0,0,0-3,.8,2.23,2.23,0,0,0-.88,2,15.41,15.41,0,0,0,.84,3.88l12.4,37.84-2,2,11.2-35.76,1.2,1.92-13.2,42.72H52l-17-50.32q-1-3.12-2.64-4.08a6.45,6.45,0,0,0-2.88-1v-1.6l4,.16c1.58.05,3.11.08,4.6.08,1.76,0,3.4,0,4.92-.08Zm55.92,0v1.6a8.31,8.31,0,0,0-3.36,1.8,10.35,10.35,0,0,0-3,5.16L81.23,535.38H80L63,485.06q-1-3.12-2.32-4.08a4.6,4.6,0,0,0-2.4-1v-1.6l3.6.16c1.44.05,2.83.08,4.16.08,2.08,0,4,0,5.84-.08l4.4-.16v1.6a16.06,16.06,0,0,0-3.8.48,2,2,0,0,0-1.6,1.76,11.81,11.81,0,0,0,.76,4.48l11.92,36.88-1.12,1L93,491.3a20.59,20.59,0,0,0,1.32-6.84,3.9,3.9,0,0,0-1.8-3.44,10.49,10.49,0,0,0-5-1.08v-1.6l4.72.16c1.6.05,3.1.08,4.48.08s2.54,0,3.44-.08Z"/><path d="M145.79,478.34c-.21,1.86-.36,3.68-.44,5.44s-.12,3.09-.12,4,0,1.88.08,2.76.11,1.61.16,2.2h-1.84a38.05,38.05,0,0,0-1.36-7.48,6.4,6.4,0,0,0-3-3.92,13.54,13.54,0,0,0-6.36-1.16h-6.64a14.39,14.39,0,0,0-4.12.44,2.76,2.76,0,0,0-1.88,1.84,14.46,14.46,0,0,0-.48,4.36V526.5a14.56,14.56,0,0,0,.48,4.32,2.79,2.79,0,0,0,1.88,1.88,14.76,14.76,0,0,0,4.12.44h5.84a17,17,0,0,0,7.64-1.36,7.91,7.91,0,0,0,3.76-4.44,34.54,34.54,0,0,0,1.72-8.36h1.84a54.63,54.63,0,0,0-.24,5.76c0,1,0,2.46.12,4.36s.23,3.85.44,5.88c-2.72-.11-5.78-.18-9.2-.2s-6.45,0-9.12,0h-6.36q-4,0-8.44,0t-8.4.2v-1.6a16.52,16.52,0,0,0,4.12-.64,2.87,2.87,0,0,0,1.88-1.92,14.56,14.56,0,0,0,.48-4.32V486.82a14.46,14.46,0,0,0-.48-4.36,3,3,0,0,0-1.88-1.92,13.37,13.37,0,0,0-4.12-.6v-1.6l8.4.16q4.49.08,8.44.08h6.36c2.46,0,5.24,0,8.36,0S143.34,478.44,145.79,478.34ZM132,505.7v1.6H117.39v-1.6Zm2.32-10.56q-.32,4.56-.28,7c0,1.6,0,3.06,0,4.4s0,2.8.08,4.4.19,3.92.4,7h-1.84c-.21-1.71-.46-3.38-.76-5a7.56,7.56,0,0,0-1.92-4q-1.47-1.56-5-1.56v-1.6c2.35,0,4-.62,4.92-1.84a9.39,9.39,0,0,0,1.8-4.32l.72-4.4Z"/><path d="M154.59,478.34l4.4.16c1.82.05,3.6.08,5.36.08q3.77,0,7.2-.08c2.3-.06,3.92-.08,4.88-.08q8.4,0,12.64,3.52a11.2,11.2,0,0,1,4.24,9,13.59,13.59,0,0,1-1.16,5.48,13.1,13.1,0,0,1-3.84,4.88,20.83,20.83,0,0,1-7.16,3.56v.16a24.77,24.77,0,0,1,9.88,3,12.67,12.67,0,0,1,5,5.16,14.61,14.61,0,0,1-3.64,17.4Q187.32,535,178.27,535q-1.76,0-5.28-.12t-8.48-.12c-1.86,0-3.7,0-5.52,0s-3.28.09-4.4.2v-1.6a16.52,16.52,0,0,0,4.12-.64,2.87,2.87,0,0,0,1.88-1.92,14.56,14.56,0,0,0,.48-4.32V486.82a14.46,14.46,0,0,0-.48-4.36,3,3,0,0,0-1.88-1.92,13.37,13.37,0,0,0-4.12-.6Zm19.84,1.6q-3.68,0-4.8,1.36c-.74.9-1.12,2.74-1.12,5.52V526.5q0,4.15,1.16,5.4c.77.82,2.39,1.24,4.84,1.24q7.85,0,11.4-3.64t3.56-10.36q0-6.17-3.32-9.52t-10.92-3.36H167V504.9h6.88c3.15,0,5.57-.6,7.28-1.8a9.09,9.09,0,0,0,3.52-4.8,21,21,0,0,0,1-6.44c0-3.95-.86-6.92-2.6-8.92S178.43,479.94,174.43,479.94Z"/><path d="M250.67,477.22a20.9,20.9,0,0,1,8.68,1.56,29.53,29.53,0,0,1,6,3.64c1.07.8,1.88.89,2.44.28s.95-2.07,1.16-4.36h1.84q-.16,3-.24,7.2c0,2.82-.08,6.56-.08,11.2h-1.84c-.37-2.3-.72-4.12-1-5.48a17.92,17.92,0,0,0-1.16-3.48,15.14,15.14,0,0,0-1.8-2.88,14.12,14.12,0,0,0-6.24-4.76,21.39,21.39,0,0,0-7.92-1.48,13.15,13.15,0,0,0-7.08,2,16.84,16.84,0,0,0-5.44,5.64,30,30,0,0,0-3.52,8.88,50.25,50.25,0,0,0-1.24,11.68,46.65,46.65,0,0,0,1.36,11.88,27.41,27.41,0,0,0,3.8,8.68,16.86,16.86,0,0,0,5.76,5.32,14.78,14.78,0,0,0,7.16,1.8,21.77,21.77,0,0,0,7.52-1.44,12.62,12.62,0,0,0,6.16-4.64,13.87,13.87,0,0,0,2.44-5,62.79,62.79,0,0,0,1.24-7.6h1.84q0,7.28.08,11.72t.24,7.48H269q-.32-3.45-1.08-4.32t-2.52.24a42.45,42.45,0,0,1-6.28,3.64,20.08,20.08,0,0,1-8.52,1.56,25.36,25.36,0,0,1-13.32-3.44,23.09,23.09,0,0,1-8.88-9.92,39.6,39.6,0,0,1,.12-31.28,25.71,25.71,0,0,1,9-10.48A23.38,23.38,0,0,1,250.67,477.22Z"/><path d="M305.71,477.22A25.26,25.26,0,0,1,319,480.66a23,23,0,0,1,8.88,9.88,35.17,35.17,0,0,1,3.16,15.64,35.73,35.73,0,0,1-3.24,15.68,25.34,25.34,0,0,1-9,10.48,23.66,23.66,0,0,1-13.2,3.76,25.36,25.36,0,0,1-13.32-3.44,23.09,23.09,0,0,1-8.88-9.92,39.6,39.6,0,0,1,.12-31.28,25.71,25.71,0,0,1,9-10.48A23.38,23.38,0,0,1,305.71,477.22Zm-.32,1.44a12.78,12.78,0,0,0-9,3.6,23.49,23.49,0,0,0-6,9.92,46.1,46.1,0,0,0-2.12,14.64,42,42,0,0,0,2.36,14.76,22.87,22.87,0,0,0,6.4,9.68,13.57,13.57,0,0,0,8.92,3.4,12.78,12.78,0,0,0,9-3.6,23.52,23.52,0,0,0,6-10,46.23,46.23,0,0,0,2.12-14.6,41.89,41.89,0,0,0-2.36-14.8,22.91,22.91,0,0,0-6.36-9.64A13.47,13.47,0,0,0,305.39,478.66Z"/><path d="M359.87,478.34q14.33,0,21.28,7.16t7,20.52a32.49,32.49,0,0,1-3.4,15.24,24.16,24.16,0,0,1-9.88,10.12,31.85,31.85,0,0,1-15.68,3.6c-1.17,0-2.91,0-5.2-.12s-4.29-.12-6-.12c-1.87,0-3.71,0-5.52,0s-3.28.09-4.4.2v-1.6a16.6,16.6,0,0,0,4.12-.64,2.89,2.89,0,0,0,1.88-1.92,14.56,14.56,0,0,0,.48-4.32V486.82a14.46,14.46,0,0,0-.48-4.36,3,3,0,0,0-1.88-1.92,13.42,13.42,0,0,0-4.12-.6v-1.6l4.4.2c1.81.08,3.6.09,5.36,0s4-.11,6.32-.16S358.38,478.34,359.87,478.34Zm-2,1.44q-3.67,0-4.8,1.36T352,486.66v40q0,4.15,1.16,5.52c.77.9,2.39,1.36,4.84,1.36q8.71,0,13.52-3.16a16.64,16.64,0,0,0,6.72-9.24,49.65,49.65,0,0,0,1.92-14.8q0-13.44-4.92-20T357.87,479.78Z"/><path d="M435.07,478.34c-.21,1.86-.36,3.68-.44,5.44s-.12,3.09-.12,4,0,1.88.08,2.76.11,1.61.16,2.2h-1.84a38.05,38.05,0,0,0-1.36-7.48,6.47,6.47,0,0,0-3-3.92,13.54,13.54,0,0,0-6.36-1.16h-6.64a14.34,14.34,0,0,0-4.12.44,2.76,2.76,0,0,0-1.88,1.84,14.46,14.46,0,0,0-.48,4.36V526.5a14.56,14.56,0,0,0,.48,4.32,2.79,2.79,0,0,0,1.88,1.88,14.71,14.71,0,0,0,4.12.44h5.84a17,17,0,0,0,7.64-1.36,8,8,0,0,0,3.76-4.44,35,35,0,0,0,1.72-8.36h1.84a54.63,54.63,0,0,0-.24,5.76c0,1,0,2.46.12,4.36s.23,3.85.44,5.88q-4.08-.16-9.2-.2t-9.12,0H412q-4,0-8.44,0t-8.4.2v-1.6a16.6,16.6,0,0,0,4.12-.64,2.89,2.89,0,0,0,1.88-1.92,14.56,14.56,0,0,0,.48-4.32V486.82a14.46,14.46,0,0,0-.48-4.36,3,3,0,0,0-1.88-1.92,13.42,13.42,0,0,0-4.12-.6v-1.6l8.4.16q4.49.08,8.44.08h6.36c2.45,0,5.24,0,8.36,0S432.62,478.44,435.07,478.34ZM421.31,505.7v1.6H406.67v-1.6Zm2.32-10.56c-.21,3-.31,5.36-.28,7s0,3.06,0,4.4,0,2.8.08,4.4.19,3.92.4,7H422c-.21-1.71-.47-3.38-.76-5a7.56,7.56,0,0,0-1.92-4c-1-1-2.65-1.56-5-1.56v-1.6c2.35,0,4-.62,4.92-1.84a9.61,9.61,0,0,0,1.8-4.32c.27-1.66.51-3.12.72-4.4Z"/><path d="M443.87,478.34l4.4.16c1.81.05,3.6.08,5.36.08q3.76,0,7.2-.08c2.29-.06,3.92-.08,4.88-.08q9.68,0,14.48,4a12.4,12.4,0,0,1,4.8,9.92,15.45,15.45,0,0,1-1,5.12,14,14,0,0,1-3.32,5.12,17.77,17.77,0,0,1-6.44,4A29.19,29.19,0,0,1,464,508.1h-7.68v-1.6h6.88q5.69,0,8.68-1.8a9.13,9.13,0,0,0,4.08-4.8,19.62,19.62,0,0,0,1.08-6.68q0-6.33-3-9.8t-10.28-3.48q-3.68,0-4.8,1.36t-1.12,5.52V526.5a14.56,14.56,0,0,0,.48,4.32,2.89,2.89,0,0,0,1.88,1.92,16.6,16.6,0,0,0,4.12.64V535c-1.23-.11-2.76-.18-4.6-.2s-3.69,0-5.56,0c-2.08,0-4,0-5.84,0s-3.28.09-4.4.2v-1.6a16.6,16.6,0,0,0,4.12-.64,2.89,2.89,0,0,0,1.88-1.92,14.56,14.56,0,0,0,.48-4.32V486.82a14.46,14.46,0,0,0-.48-4.36,3,3,0,0,0-1.88-1.92,13.42,13.42,0,0,0-4.12-.6Zm12.72,28.4q4.32.15,6.8.36c1.65.13,3,.25,4,.36s2,.24,3,.4c3.57.58,6.15,1.66,7.72,3.24s2.73,4,3.48,7.32l2,8.16a21.62,21.62,0,0,0,1.64,5.08,2.62,2.62,0,0,0,2.6,1.48,3.74,3.74,0,0,0,2.28-.88,15.45,15.45,0,0,0,2-2.16l1.2.88a15.31,15.31,0,0,1-3.48,3.8,8.46,8.46,0,0,1-5.08,1.32,8.2,8.2,0,0,1-5.2-1.76q-2.24-1.77-3.36-6.88l-1.76-8a43.8,43.8,0,0,0-1.64-6,9.46,9.46,0,0,0-2.56-4,7.14,7.14,0,0,0-4.84-1.44h-8.64Z"/><path class="cls-5" d="M325.2,221.49l0-.12h-.07l-20.77-76.82H278.52l15,55.56h-62l15-55.56H220.75L200,221.37h-.07l0,.12,0,.13H200l20.78,76.82h25.86l-15-55.56h62l-15,55.56h25.87l20.77-76.82h.07Zm-62.63,20.77-17.42-20.77,17.42-20.77L280,221.49Z"/></svg>