<?xml version="1.0" encoding="UTF-8"?>
<svg width="40px" height="40px" viewBox="0 0 40 40" version="1.1" xmlns="http://www.w3.org/2000/svg" xmlns:xlink="http://www.w3.org/1999/xlink">
    <!-- Generator: Sketch 54.1 (76490) - https://sketchapp.com -->
    <title>Artboard Copy 20</title>
    <desc>Created with Sketch.</desc>
    <defs>
        <radialGradient cx="32.9683884%" cy="22.4287018%" fx="32.9683884%" fy="22.4287018%" r="78.1196766%" gradientTransform="translate(0.329684,0.224287),scale(0.972908,1.000000),translate(-0.329684,-0.224287)" id="radialGradient-1">
            <stop stop-color="#423325" stop-opacity="0.98" offset="0%"></stop>
            <stop stop-color="#1C0A00" offset="100%"></stop>
        </radialGradient>
    </defs>
    <g id="Artboard-Copy-20" stroke="none" stroke-width="1" fill="none" fill-rule="evenodd">
        <g id="adobe-illustrator-cc-seeklogo.com" transform="translate(3.000000, 3.000000)" fill-rule="nonzero">
            <polygon id="Path" fill="url(#radialGradient-1)" points="1.4552 1.428 32.5788 1.428 32.5788 31.7084 1.4552 31.7084"></polygon>
            <path d="M1.4552,1.428 L32.5788,1.428 L32.5788,31.7084 L1.4552,31.7084 L1.4552,1.428 Z M0.0408,33.1228 L34,33.1228 L34,0.0136 L0.0408,0.0136 L0.0408,33.1228 Z M22.2836,11.8184 C22.2836,11.7028 22.3244,11.6484 22.4536,11.6484 L24.6772,11.6484 C24.7928,11.6484 24.8472,11.6892 24.8472,11.8184 L24.8472,22.984 C24.8472,23.0996 24.82,23.154 24.6772,23.154 L22.4808,23.154 C22.338,23.154 22.2972,23.086 22.2972,22.9704 L22.2972,11.8184 L22.2836,11.8184 L22.2836,11.8184 Z M22.1272,8.602 C22.1272,7.6976 22.7664,7.1604 23.5688,7.1604 C24.4324,7.1604 25.0104,7.7384 25.0104,8.602 C25.0104,9.5336 24.4052,10.0436 23.5416,10.0436 C22.7256,10.0504 22.1272,9.5404 22.1272,8.602 Z M15.7624,16.4696 C15.368,14.8988 14.4296,11.4784 14.076,9.8192 L14.0488,9.8192 C13.7496,11.4716 13.0016,14.2732 12.41,16.4696 L15.7624,16.4696 L15.7624,16.4696 Z M11.832,18.7612 L10.7168,23.0044 C10.6896,23.12 10.6488,23.1472 10.506,23.1472 L8.4252,23.1472 C8.2824,23.1472 8.2552,23.1064 8.2824,22.9364 L12.3012,8.874 C12.3692,8.6224 12.4168,8.3912 12.444,7.6976 C12.444,7.5956 12.4848,7.5548 12.5596,7.5548 L15.5312,7.5548 C15.6332,7.5548 15.674,7.582 15.7012,7.6976 L20.2028,22.9636 C20.23,23.0792 20.2028,23.1472 20.0872,23.1472 L17.7412,23.1472 C17.6256,23.1472 17.5576,23.12 17.5304,23.018 L16.3676,18.7612 L11.832,18.7612 L11.832,18.7612 Z" id="Shape" fill="#FF7F18"></path>
        </g>
    </g>
</svg>