<?xml version="1.0" encoding="UTF-8"?>
<svg width="40px" height="40px" viewBox="0 0 40 40" version="1.1" xmlns="http://www.w3.org/2000/svg" xmlns:xlink="http://www.w3.org/1999/xlink">
    <!-- Generator: Sketch 54.1 (76490) - https://sketchapp.com -->
    <title>Artboard Copy 21</title>
    <desc>Created with Sketch.</desc>
    <defs>
        <radialGradient cx="32.9589462%" cy="22.4357674%" fx="32.9589462%" fy="22.4357674%" r="78.1232923%" gradientTransform="translate(0.329589,0.224358),scale(0.972678,1.000000),translate(-0.329589,-0.224358)" id="radialGradient-1">
            <stop stop-color="#34364E" stop-opacity="0.98" offset="0%"></stop>
            <stop stop-color="#0C0824" offset="100%"></stop>
        </radialGradient>
    </defs>
    <g id="Artboard-Copy-21" stroke="none" stroke-width="1" fill="none" fill-rule="evenodd">
        <g id="adobe-photoshop-cc-seeklogo.com" transform="translate(3.000000, 3.000000)" fill-rule="nonzero">
            <polygon id="Path" fill="url(#radialGradient-1)" points="1.4552 1.4484 32.5652 1.4484 32.5652 31.7084 1.4552 31.7084"></polygon>
            <path d="M1.4552,1.4484 L32.5652,1.4484 L32.5652,31.7084 L1.4552,31.7084 L1.4552,1.4484 Z M0.0408,33.1228 L33.9728,33.1228 L33.9728,0.034 L0.0408,0.034 L0.0408,33.1228 Z M22.9228,13.6136 C21.8076,13.6136 21.4268,14.178 21.4268,14.6472 C21.4268,15.1572 21.6784,15.5108 23.1812,16.286 C25.398,17.3604 26.0916,18.394 26.0916,19.9036 C26.0916,22.168 24.3644,23.3852 22.032,23.3852 C20.8012,23.3852 19.7404,23.1336 19.1352,22.78 C19.0332,22.7392 19.0196,22.6644 19.0196,22.5556 L19.0196,20.468 C19.0196,20.3252 19.0876,20.2844 19.1896,20.3524 C20.0804,20.9304 21.1004,21.1888 22.032,21.1888 C23.1472,21.1888 23.6164,20.7196 23.6164,20.0872 C23.6164,19.5772 23.29,19.1284 21.862,18.3872 C19.856,17.4284 19.0196,16.456 19.0196,14.824 C19.0196,13.0016 20.4476,11.4852 22.9228,11.4852 C24.14,11.4852 24.99,11.6688 25.4524,11.8796 C25.568,11.9476 25.5952,12.0632 25.5952,12.1652 L25.5952,14.1032 C25.5952,14.2188 25.5272,14.2868 25.3844,14.246 C24.7588,13.8516 23.8408,13.6136 22.9228,13.6136 L22.9228,13.6136 Z M10.7644,15.2932 C11.0908,15.3204 11.3424,15.3204 11.9068,15.3204 C13.5592,15.3204 15.1164,14.7424 15.1164,12.4916 C15.1164,10.6964 14.0012,9.792 12.1176,9.792 C11.5532,9.792 11.016,9.8192 10.7576,9.8328 L10.7644,15.2932 L10.7644,15.2932 Z M8.2416,7.786 C8.2416,7.684 8.4388,7.616 8.5544,7.616 C9.4588,7.5752 10.8052,7.548 12.1992,7.548 C16.116,7.548 17.646,9.6968 17.646,12.4372 C17.646,16.0276 15.0416,17.5712 11.8456,17.5712 C11.3084,17.5712 11.1248,17.544 10.744,17.544 L10.744,22.9704 C10.744,23.086 10.7032,23.1404 10.574,23.1404 L8.4116,23.1404 C8.296,23.1404 8.2416,23.0996 8.2416,22.9704 L8.2416,7.786 L8.2416,7.786 Z" id="Shape" fill="#31C5F0"></path>
        </g>
    </g>
</svg>