<?xml version="1.0" encoding="UTF-8"?>
<svg width="40px" height="40px" viewBox="0 0 40 40" version="1.1" xmlns="http://www.w3.org/2000/svg" xmlns:xlink="http://www.w3.org/1999/xlink">
    <!-- Generator: Sketch 54.1 (76490) - https://sketchapp.com -->
    <title>Artboard Copy 18</title>
    <desc>Created with Sketch.</desc>
    <g id="Artboard-Copy-18" stroke="none" stroke-width="1" fill="none" fill-rule="evenodd">
        <g id="android" transform="translate(4.000000, 2.000000)">
            <path d="M10.9090909,21.4909091 C12.1090909,21.4909091 13.0909091,22.4727273 13.0909091,23.6727273 L13.0909091,33.2727273 C13.0909091,34.4727273 12.1090909,35.4545455 10.9090909,35.4545455 C9.70909091,35.4545455 8.72727273,34.4727273 8.72727273,33.2727273 L8.72727273,23.6727273 C8.72727273,22.4727273 9.70909091,21.4909091 10.9090909,21.4909091 L10.9090909,21.4909091 Z" id="Path" fill="#A4C639"></path>
            <path d="M5.78181818,10.0363636 C5.78181818,10.1454545 5.78181818,10.2545455 5.78181818,10.2545455 L5.78181818,24.7636364 C5.78181818,26.2909091 6.98181818,27.6 8.50909091,27.6 L23.2363636,27.6 C24.7636364,27.6 25.9636364,26.2909091 25.9636364,24.7636364 L25.9636364,10.2545455 C25.9636364,10.1454545 25.9636364,10.0363636 25.9636364,10.0363636 L5.78181818,10.0363636 L5.78181818,10.0363636 Z" id="Path" fill="#A4C639"></path>
            <path d="M20.9454545,21.4909091 C22.1454545,21.4909091 23.1272727,22.4727273 23.1272727,23.6727273 L23.1272727,33.2727273 C23.1272727,34.4727273 22.1454545,35.4545455 20.9454545,35.4545455 C19.7454545,35.4545455 18.7636364,34.4727273 18.7636364,33.2727273 L18.7636364,23.6727273 C18.7636364,22.4727273 19.7454545,21.4909091 20.9454545,21.4909091 L20.9454545,21.4909091 Z M2.18181818,11.2363636 C3.38181818,11.2363636 4.36363636,12.2181818 4.36363636,13.4181818 L4.36363636,23.0181818 C4.36363636,24.2181818 3.38181818,25.2 2.18181818,25.2 C0.981818182,25.2 0,24.2181818 0,23.0181818 L0,13.4181818 C0,12.3272727 0.981818182,11.2363636 2.18181818,11.2363636 L2.18181818,11.2363636 Z M29.6727273,11.2363636 C30.8727273,11.2363636 31.8545455,12.2181818 31.8545455,13.4181818 L31.8545455,23.0181818 C31.8545455,24.2181818 30.8727273,25.2 29.6727273,25.2 C28.4727273,25.2 27.4909091,24.2181818 27.4909091,23.0181818 L27.4909091,13.4181818 C27.4909091,12.3272727 28.4727273,11.2363636 29.6727273,11.2363636 L29.6727273,11.2363636 Z M5.89090909,9.05454545 C6,4.58181818 9.81818182,0.981818182 14.8363636,0.436363636 L17.1272727,0.436363636 C22.1454545,0.872727273 25.9636364,4.58181818 26.0727273,9.05454545 L5.89090909,9.05454545 Z" id="Shape" fill="#A4C639" fill-rule="nonzero"></path>
            <path d="M6.65454545,0 L9.05454545,4.03636364 M25.2,0 L22.9090909,4.14545455" id="Shape" stroke="#A4C639" stroke-width="0.03930856" stroke-linecap="round" stroke-linejoin="round"></path>
            <path d="M12.9818182,5.01818182 C12.9818182,5.67272727 12.4363636,6.10909091 11.7818182,6.10909091 C11.1272727,6.10909091 10.5818182,5.56363636 10.5818182,5.01818182 L10.5818182,5.01818182 C10.5818182,4.36363636 11.1272727,3.92727273 11.7818182,3.92727273 C12.4363636,3.92727273 12.9818182,4.36363636 12.9818182,5.01818182 L12.9818182,5.01818182 Z M21.6,5.01818182 C21.6,5.67272727 21.0545455,6.10909091 20.4,6.10909091 C19.7454545,6.10909091 19.2,5.56363636 19.2,5.01818182 L19.2,5.01818182 C19.2,4.36363636 19.7454545,3.92727273 20.4,3.92727273 C21.0545455,3.92727273 21.6,4.36363636 21.6,5.01818182 L21.6,5.01818182 Z" id="Shape" fill="#FFFFFF" fill-rule="nonzero"></path>
        </g>
    </g>
</svg>