<?xml version="1.0" encoding="UTF-8"?>
<svg width="40px" height="40px" viewBox="0 0 40 40" version="1.1" xmlns="http://www.w3.org/2000/svg" xmlns:xlink="http://www.w3.org/1999/xlink">
    <!-- Generator: Sketch 54.1 (76490) - https://sketchapp.com -->
    <title>Artboard Copy 16</title>
    <desc>Created with Sketch.</desc>
    <g id="Artboard-Copy-16" stroke="none" stroke-width="1" fill="none" fill-rule="evenodd">
        <g id="objective-c-seeklogo.com" transform="translate(2.000000, 2.000000)" fill="#F1592A" fill-rule="nonzero">
            <path d="M17.9523275,35.3940367 C8.60539639,35.3940367 0.678943824,27.4994539 0.606098769,18.0933361 C0.573264935,13.5100648 2.37683206,9.10444222 5.61419631,5.85991967 C8.87291442,2.52233548 13.3332939,0.629953897 17.9978557,0.605970069 L17.9978557,0.605970069 C22.5777374,0.601890787 26.9698281,2.42591947 30.1994024,5.67325422 C33.4829121,8.87402853 35.3528717,13.2531099 35.3941654,17.8383784 C35.437235,27.4525846 27.7072723,35.2964625 18.0934648,35.3940367 L17.9523275,35.3940367 Z M18.0069613,1.51653326 C13.5867682,1.54243006 9.36116085,3.33794422 6.27435462,6.50186672 C3.20398454,9.57147174 1.49057105,13.7426908 1.51666196,18.0842305 C1.5849542,26.9986441 9.09710051,34.4743679 17.9477747,34.4743679 L18.0661479,34.4743679 C27.1824101,34.3917633 34.5190501,26.9594988 34.4836022,17.8429312 C34.4423226,13.4989751 32.6691202,9.35112356 29.5574554,6.31975408 C26.504006,3.23926594 22.3443465,1.50949031 18.0069613,1.51653326 Z" id="path8"></path>
            <polygon id="path10" points="4.50786204 23.0877752 4.50786204 12.92589 6.98004109 12.92589 6.98004109 13.8364532 5.6688301 13.8364532 5.6688301 22.1954233 6.98004109 22.1954233 6.98004109 23.1059865"></polygon>
            <path d="M12.8987018,17.9066707 C12.8987018,19.7596668 11.7741563,20.8159201 10.2489629,20.8159201 C8.7237696,20.8159201 7.70849165,19.6276351 7.70849165,18.0022798 C7.70849165,16.3040795 8.77385058,15.1066889 10.3309136,15.1066889 C11.8879767,15.1066889 12.8987018,16.3541604 12.8987018,17.9066707 Z M8.77385058,17.9886214 C8.77385058,19.1131669 9.33839975,20.0055188 10.3081496,20.0055188 C11.2778993,20.0055188 11.8333429,19.0949556 11.8333429,17.947646 C11.8333429,16.9050512 11.3188747,15.9216429 10.3081496,15.9216429 C9.29742441,15.9216429 8.76474494,16.8731814 8.76474494,18.0113854 L8.77385058,17.9886214 Z" id="path12"></path>
            <path d="M13.7546312,15.2979071 C14.2387854,15.2142981 14.7293209,15.1731662 15.220638,15.1749811 C15.7725649,15.1210745 16.3273529,15.2438293 16.8050179,15.5255479 C17.1696971,15.7403376 17.3892814,16.1359379 17.3786727,16.5590371 C17.365237,17.112805 16.9981545,17.5955186 16.4681095,17.7564277 L16.4681095,17.7564277 C17.1174211,17.8885167 17.5838563,18.4596618 17.5835494,19.1222725 C17.5905195,19.5634124 17.3940546,19.983209 17.05087,20.2604765 C16.6593278,20.6064905 16.0082751,20.7749447 15.0021028,20.7749447 C14.5881862,20.7769807 14.1745602,20.7526497 13.7637369,20.7020997 L13.7546312,15.2979071 Z M14.7562507,17.478706 L15.2707189,17.478706 C15.9672998,17.478706 16.3588419,17.1509032 16.3588419,16.6819632 C16.3588419,16.2130231 15.9672998,15.9261957 15.3253527,15.9261957 C15.1332253,15.919631 14.9409417,15.9333655 14.7516979,15.9671711 L14.7562507,17.478706 Z M14.7562507,20.0191773 C14.9331941,20.0374314 15.1110746,20.0450331 15.2889302,20.0419413 C15.9354301,20.0419413 16.5090849,19.7960893 16.5090849,19.1313782 C16.5090849,18.466667 15.9536413,18.220815 15.2570605,18.220815 L14.7562507,18.220815 L14.7562507,20.0191773 Z" id="path14"></path>
            <path d="M19.57313,15.2250621 L20.5793023,15.2250621 L20.5793023,18.8172339 C20.5793023,20.3424272 19.8417461,20.8523426 18.7581759,20.8523426 C18.4683899,20.8499437 18.1808943,20.8007466 17.9067994,20.7066525 L18.0297254,19.8962512 C18.2317621,19.9593608 18.4418232,19.9930932 18.6534612,19.9964132 C19.227116,19.9964132 19.5640244,19.7323499 19.5640244,18.7762585 L19.57313,15.2250621 Z" id="path16"></path>
            <polygon id="path18" points="23.4430236 18.2162621 23.4430236 18.912843 21.3487282 18.912843 21.3487282 18.2162621"></polygon>
            <path d="M28.3327479,20.5837264 C27.880095,20.7642106 27.3946779,20.8479567 26.9077165,20.8295785 C25.1548824,20.8295785 24.0895234,19.7323499 24.0895234,18.0523608 C24.0476216,17.2606266 24.3461034,16.488731 24.9097637,15.9311597 C25.4734239,15.3735883 26.2485158,15.0835076 27.0397482,15.1340058 C27.5075619,15.1146297 27.9738987,15.1985704 28.4055929,15.3798578 L28.182505,16.1811534 C27.8400762,16.0354097 27.47106,15.9625367 27.0989348,15.9671711 C25.9743892,15.9671711 25.163988,16.6728575 25.163988,18.0022798 C25.163988,19.2133288 25.8787801,19.9964132 27.0898291,19.9964132 C27.465563,20.001835 27.8385977,19.9321812 28.1870578,19.7915365 L28.3327479,20.5837264 Z" id="path20"></path>
            <polygon id="path22" points="31.4924021 12.8985731 31.4924021 23.0877752 29.0202231 23.0877752 29.0202231 22.177212 30.3314341 22.177212 30.3314341 13.8091363 29.0202231 13.8091363 29.0202231 12.8985731"></polygon>
        </g>
    </g>
</svg>