<?xml version="1.0" encoding="UTF-8"?>
<svg width="40px" height="40px" viewBox="0 0 40 40" version="1.1" xmlns="http://www.w3.org/2000/svg" xmlns:xlink="http://www.w3.org/1999/xlink">
    <!-- Generator: Sketch 54.1 (76490) - https://sketchapp.com -->
    <title>Artboard Copy 34</title>
    <desc>Created with Sketch.</desc>
    <g id="Artboard-Copy-34" stroke="none" stroke-width="1" fill="none" fill-rule="evenodd">
        <g id="redis" transform="translate(3.000000, 5.000000)" fill-rule="nonzero">
            <path d="M32.6678906,22.4377422 C30.8534062,23.3835 21.454,27.2482109 19.4529141,28.2914531 C17.4518281,29.3348281 16.3401875,29.3247344 14.7593203,28.5690312 C13.1785859,27.8133281 3.17594531,23.7729062 1.37407812,22.9116172 C0.473609375,22.4813047 0,22.1179297 0,21.7747422 L0,18.3380859 C0,18.3380859 13.0222656,15.5032031 15.1245547,14.7489609 C17.2267109,13.9947187 17.9561172,13.9674922 19.7451016,14.6227891 C21.5343516,15.2783516 32.2318672,17.2083828 34,17.8559766 L33.9992031,21.2440234 C33.9994687,21.5837578 33.5914688,21.9564297 32.6678906,22.4377422" id="Path" fill="#912626"></path>
            <path d="M32.6672266,19.0214062 C30.852875,19.9667656 21.4537344,23.8316094 19.4526484,24.8747187 C17.4516953,25.9182266 16.3400547,25.908 14.7593203,25.1522969 C13.1784531,24.397125 3.17621094,20.3560391 1.37447656,19.4952812 C-0.427257813,18.6339922 -0.464976563,18.04125 1.30488281,17.3482344 C3.07474219,16.6549531 13.0221328,12.7522578 15.1246875,11.9980156 C17.2268437,11.2440391 17.9561172,11.2165469 19.7451016,11.8721094 C21.5342187,12.5274063 30.8773125,16.2462891 32.6451797,16.89375 C34.4137109,17.5420078 34.4815781,18.0757812 32.6672266,19.0214062" id="Path" fill="#C6302B"></path>
            <path d="M32.6678906,16.8770156 C30.8534062,17.8229062 21.454,21.6874844 19.4529141,22.731125 C17.4518281,23.7741016 16.3401875,23.7640078 14.7593203,23.0083047 C13.1784531,22.253 3.17594531,18.2121797 1.37407812,17.3508906 C0.473609375,16.9205781 0,16.5577344 0,16.2144141 L0,12.7773594 C0,12.7773594 13.0222656,9.94260937 15.1245547,9.18836719 C17.2267109,8.434125 17.9561172,8.40676563 19.7451016,9.06219531 C21.5344844,9.717625 32.232,11.6472578 34,12.2949844 L33.9992031,15.6834297 C33.9994687,16.0230312 33.5914688,16.3957031 32.6678906,16.8770156" id="Path" fill="#912626"></path>
            <path d="M32.6672266,13.4606797 C30.852875,14.4063047 21.4537344,18.2708828 19.4526484,19.3143906 C17.4516953,20.3575 16.3400547,20.3472734 14.7593203,19.5915703 C13.1784531,18.8363984 3.17621094,14.7954453 1.37447656,13.9345547 C-0.427257813,13.0735312 -0.464976563,12.4806562 1.30488281,11.787375 C3.07474219,11.0944922 13.0222656,7.19153125 15.1246875,6.43742187 C17.2268437,5.6833125 17.9561172,5.65595312 19.7451016,6.31138281 C21.5342187,6.96667969 30.8773125,10.6852969 32.6451797,11.3330234 C34.4137109,11.9811484 34.4815781,12.5150547 32.6672266,13.4606797" id="Path" fill="#C6302B"></path>
            <path d="M32.6678906,11.1101641 C30.8534062,12.0557891 21.454,15.9206328 19.4529141,16.9642734 C17.4518281,18.0073828 16.3401875,17.9971563 14.7593203,17.2414531 C13.1784531,16.4861484 3.17594531,12.4451953 1.37407812,11.5843047 C0.473609375,11.1535938 0,10.7906172 0,10.4476953 L0,7.01050781 C0,7.01050781 13.0222656,4.17589063 15.1245547,3.42178125 C17.2267109,2.66740625 17.9561172,2.6403125 19.7451016,3.29560938 C21.5344844,3.95103906 32.232,5.88067188 34,6.52839844 L33.9992031,9.91671094 C33.9994687,10.2560469 33.5914688,10.6287188 32.6678906,11.1101641" id="Path" fill="#912626"></path>
            <path d="M32.6672266,7.69382813 C30.852875,8.63945313 21.4537344,12.5042969 19.4526484,13.5474063 C17.4516953,14.5905156 16.3400547,14.5802891 14.7593203,13.8249844 C13.1785859,13.0692813 3.17621094,9.02859375 1.37460938,8.16757031 C-0.427257812,7.30667969 -0.46484375,6.71367188 1.30488281,6.02052344 C3.07474219,5.32750781 13.0222656,1.42507812 15.1246875,0.670703125 C17.2268438,-0.0835390625 17.9561172,-0.110632813 19.7451016,0.544796875 C21.5342187,1.20022656 30.8773125,4.91884375 32.6451797,5.56657031 C34.4137109,6.21416406 34.4815781,6.74820313 32.6672266,7.69382813" id="Path" fill="#C6302B"></path>
            <path d="M21.1547734,4.35053906 L18.2315703,4.65401563 L17.5772031,6.22864063 L16.5202813,4.47153125 L13.1448516,4.1681875 L15.6635078,3.25988281 L14.9078047,1.86561719 L17.2658906,2.78786719 L19.4889063,2.06005469 L18.8880625,3.50173438 L21.1547734,4.35053906 M17.4026875,11.9896484 L11.9471484,9.72692187 L19.7644922,8.52696094 L17.4026875,11.9896484 M9.83901563,5.22577344 C12.1466328,5.22577344 14.0172969,5.95092969 14.0172969,6.84528906 C14.0172969,7.73991406 12.1466328,8.4649375 9.83901563,8.4649375 C7.53139844,8.4649375 5.66073438,7.73978125 5.66073438,6.84528906 C5.66073438,5.95092969 7.53139844,5.22577344 9.83901563,5.22577344" id="Shape" fill="#FFFFFF"></path>
            <polyline id="Path" fill="#621B1C" points="24.6094922 4.78098437 29.2361484 6.60928125 24.6134766 8.43585156 24.6094922 4.78085156"></polyline>
            <polyline id="Path" fill="#9A2928" points="19.4908984 6.80571094 24.6094922 4.78098438 24.6134766 8.43585156 24.1115781 8.63214844 19.4908984 6.80571094"></polyline>
        </g>
    </g>
</svg>