<?xml version="1.0" encoding="UTF-8"?>
<svg width="40px" height="40px" viewBox="0 0 40 40" version="1.1" xmlns="http://www.w3.org/2000/svg" xmlns:xlink="http://www.w3.org/1999/xlink">
    <!-- Generator: Sketch 54.1 (76490) - https://sketchapp.com -->
    <title>Artboard Copy 19</title>
    <desc>Created with Sketch.</desc>
    <g id="Artboard-Copy-19" stroke="none" stroke-width="1" fill="none" fill-rule="evenodd">
        <g id="sketch-seeklogo.com" transform="translate(3.000000, 5.000000)" fill-rule="nonzero">
            <polygon id="Path" fill="#FDB300" points="16.9999734 2.65625e-05 7.41821563 1.01312031 -2.65625e-05 10.9712688 16.9999734 30.7676359 33.9999734 10.9712688 26.5818641 1.01312031"></polygon>
            <polygon id="Path" fill="#EB6C00" points="0 10.9713219 17 30.7675562 6.88579687 10.9713219"></polygon>
            <polygon id="Path" fill="#EB6C00" points="27.1141102 10.9713219 17.0000398 30.7675562 33.999907 10.9713219"></polygon>
            <polygon id="Path" fill="#FDAD00" points="6.88583672 10.9713219 17.0000398 30.7675562 27.114243 10.9713219"></polygon>
            <polygon id="Path" fill="#FDD231" points="7.41821562 1.01312031 6.88577031 10.9712688 16.9999734 2.65625e-05"></polygon>
            <polygon id="Path" fill="#FDD231" points="27.1141102 10.9713219 26.5817977 1.01304062 17.0000398 7.96875e-05"></polygon>
            <polygon id="Path" fill="#FDAD00" points="27.1142297 10.9713219 33.9998937 10.9713219 26.5817844 1.01304062"></polygon>
            <polygon id="Path" fill="#FDAD00" points="0 10.9713219 6.88579687 10.9713219 7.41824219 1.01304062"></polygon>
            <polygon id="Path" fill="#FEEEB7" points="16.9999734 2.65625e-05 6.88577031 10.9712688 27.1141766 10.9712688"></polygon>
        </g>
    </g>
</svg>